# xmcd CD database file
#
# Track frame offsets:
#	150
#	13656
#	28953
#	47497
#	61249
#	82458
#	103095
#	123059
#	141468
#	163940
#	181835
#	197946
#	214556
#
# Disc length: 3078 seconds
#
# Revision: 0
# Processed by: cddbd v1.5.2PL0 Copyright (c) Steve Scherf et al.
# Submitted via: CDex 1.51
#
DISCID=bd0c040d
DTITLE=David Evans - Live At Alte Post
DYEAR=2012
DGENRE=Blues
TTITLE0=One Dime Blues
TTITLE1=Match Box Blues
TTITLE2=Highway 51
TTITLE3=Candy Man
TTITLE4=State Of Arkansas Blues
TTITLE5=Good Morning Little Schoolgirl
TTITLE6=Kind Hearted Woman Blues
TTITLE7=Long Distance Call
TTITLE8=Big Road Blues
TTITLE9=Poor Boy Long Way From Home
TTITLE10=Hard Workin' Man
TTITLE11=Mellow Peaches
TTITLE12=Lonesome Home Blues ( Live at Zum Schwarzen Ross )
EXTD=YEAR: 2012
EXTT0=
EXTT1=
EXTT2=
EXTT3=
EXTT4=
EXTT5=
EXTT6=
EXTT7=
EXTT8=
EXTT9=
EXTT10=
EXTT11=
EXTT12=
PLAYORDER=
